<?xml version="1.0" encoding="UTF-8"?>
<svg version="1.1" xmlns="http://www.w3.org/2000/svg" width="175" height="67">
<path d="M0 0 C57.75 0 115.5 0 175 0 C175 22.11 175 44.22 175 67 C117.25 67 59.5 67 0 67 C0 44.89 0 22.78 0 0 Z " fill="#F5BA14" transform="translate(0,0)"/>
<path d="M0 0 C3.53684081 2.99862591 5.78275426 5.08823745 6.3125 9.75 C5.91993628 13.83266269 4.53100884 15.81816032 2 19 C-2.05358424 21.70238949 -4.18310104 21.22937614 -9 21 C-9.66 20.67 -10.32 20.34 -11 20 C-11.33 23.96 -11.66 27.92 -12 32 C-13.32 32 -14.64 32 -16 32 C-16 21.44 -16 10.88 -16 0 C-13.525 0.495 -13.525 0.495 -11 1 C-10.38125 0.67 -9.7625 0.34 -9.125 0 C-5.78116951 -1.57356729 -3.51013744 -0.92372038 0 0 Z " fill="#FEFBF3" transform="translate(106,27)"/>
<path d="M0 0 C1.65 0 3.3 0 5 0 C5.33 4.62 5.66 9.24 6 14 C6.88042969 12.989375 7.76085937 11.97875 8.66796875 10.9375 C9.8404215 9.62435292 11.01363872 8.31188811 12.1875 7 C12.76564453 6.33226562 13.34378906 5.66453125 13.93945312 4.9765625 C18.34516693 0.09791896 18.34516693 0.09791896 21.92578125 -0.4375 C22.61027344 -0.293125 23.29476562 -0.14875 24 0 C21.83735988 3.98381075 19.28788824 6.88983545 16 10 C17.80234261 14.80333054 20.23717686 19.11787967 22.7578125 23.57421875 C24 26 24 26 24 28 C22.35 28 20.7 28 19 28 C17.99491199 26.21118264 16.99607264 24.41885304 16 22.625 C15.1646875 21.12839844 15.1646875 21.12839844 14.3125 19.6015625 C13 17 13 17 13 15 C9.00381882 18.04971721 6.37812135 20.07158112 5.375 25.1875 C5.25125 26.115625 5.1275 27.04375 5 28 C3.35 28 1.7 28 0 28 C0 18.76 0 9.52 0 0 Z " fill="#FDF9EE" transform="translate(15,19)"/>
<path d="M0 0 C3.8271837 2.06079122 6.63072705 3.75525387 8 8 C8 8.99 8 9.98 8 11 C2.19233704 12.5056904 -2.9981863 13.21824777 -9 13 C-8.51294288 15.06402968 -8.51294288 15.06402968 -7 17 C-3.43793339 17.81870185 -3.43793339 17.81870185 0 18 C0.99 16.68 1.98 15.36 3 14 C4.32 14.33 5.64 14.66 7 15 C6.6858889 17.93170364 5.9610478 19.04249331 3.9375 21.25 C0.21887666 23.46535008 -2.82859288 23.91249531 -7 23 C-10.42215793 21.07114735 -12.46291808 19.66857474 -13.6953125 15.83984375 C-14.2739757 12.15240488 -14.27139428 9.67848569 -12.875 6.1875 C-8.98008082 1.64342763 -6.22043947 -1.01558195 0 0 Z " fill="#FDF9EE" transform="translate(128,26)"/>
<path d="M0 0 C3.85186407 2.47100714 5.69244542 3.83568624 6.875 8.3125 C6.91625 9.199375 6.9575 10.08625 7 11 C1.61972975 12.19088986 -3.45291384 13.2919519 -9 13 C-8.01 14.65 -7.02 16.3 -6 18 C-2.56769552 17.73606499 -2.56769552 17.73606499 1 17 C1.66 16.01 2.32 15.02 3 14 C4.32 14.33 5.64 14.66 7 15 C6.09126425 18.05665662 5.32469175 19.72305703 2.875 21.8125 C-0.86818203 23.35859693 -4.00646403 23.7503007 -8 23 C-10.8100346 21.20636089 -12.50940468 19.98119065 -14 17 C-14.52137294 12.17089 -14.73402673 8.25833154 -12.25 4 C-8.27396947 0.46575064 -5.40398596 -0.75655803 0 0 Z " fill="#FDF9EE" transform="translate(55,26)"/>
<path d="M0 0 C3.6578218 2.03993908 5.66946174 3.50419262 8 7 C8 8.32 8 9.64 8 11 C2.19233704 12.5056904 -2.9981863 13.21824777 -9 13 C-8.51294288 15.06402968 -8.51294288 15.06402968 -7 17 C-2.40249903 18.18701 -2.40249903 18.18701 2 17 C2.33 16.01 2.66 15.02 3 14 C5.475 14.495 5.475 14.495 8 15 C6.10572416 18.5044103 4.59419117 21.15433427 1 23 C-3.787821 23.53198011 -5.86402545 23.72509014 -9.9375 21.125 C-13.48617625 17.4687881 -13.3879121 14.48056612 -13.359375 9.55078125 C-12.78039966 5.44131496 -11.00085071 3.78650423 -8 1 C-5.13391871 -0.43304064 -3.18699217 -0.30644155 0 0 Z " fill="#FEFAEF" transform="translate(78,26)"/>
<path d="M0 0 C1.32 0 2.64 0 4 0 C4.33 1.65 4.66 3.3 5 5 C5.721875 4.34 6.44375 3.68 7.1875 3 C10 1 10 1 12.625 0.5625 C15 1 15 1 16.8125 2.1875 C18.36678206 4.55982525 18.22537188 6.22041345 18 9 C16.68 9.33 15.36 9.66 14 10 C13.67 9.01 13.34 8.02 13 7 C10.04673286 7.31927212 8.45282139 7.5210543 6.375 9.71875 C4.7804857 12.36419418 4.51410452 14.18561123 4.3125 17.25 C4.24675781 18.14203125 4.18101562 19.0340625 4.11328125 19.953125 C4.07589844 20.62859375 4.03851563 21.3040625 4 22 C2.68 22 1.36 22 0 22 C-0.77670952 19.24295116 -1.12809985 16.78736685 -1.1328125 13.92578125 C-1.13410156 13.17619141 -1.13539063 12.42660156 -1.13671875 11.65429688 C-1.13285156 10.88150391 -1.12898437 10.10871094 -1.125 9.3125 C-1.12886719 8.52810547 -1.13273438 7.74371094 -1.13671875 6.93554688 C-1.12667749 1.12667749 -1.12667749 1.12667749 0 0 Z " fill="#FDF7ED" transform="translate(140,26)"/>
<path d="M0 0 C3.5625 0.3125 3.5625 0.3125 5.5625 1.375 C7.19779445 4.54338299 6.4028752 6.95099919 5.5625 10.3125 C4.4375 12.3125 4.4375 12.3125 2.5625 13.3125 C-1 13.25 -1 13.25 -4.4375 12.3125 C-5.9375 10.625 -5.9375 10.625 -6.4375 8.3125 C-6.01954616 3.08807701 -5.66127348 0.51466123 0 0 Z " fill="#F5BD1A" transform="translate(100.4375,30.6875)"/>
<path d="M0 0 C0.66 1.32 1.32 2.64 2 4 C-1.47325181 5.1577506 -4.36067448 5.06866652 -8 5 C-7.625 3.0625 -7.625 3.0625 -7 1 C-4.53721199 -0.231394 -2.7204945 -0.07159196 0 0 Z " fill="#F5BE22" transform="translate(128,30)"/>
<path d="M0 0 C1.2065625 0.0309375 1.2065625 0.0309375 2.4375 0.0625 C3.0975 1.3825 3.7575 2.7025 4.4375 4.0625 C0.96424819 5.2202506 -1.92317448 5.13116652 -5.5625 5.0625 C-3.15007962 0.07683121 -3.15007962 0.07683121 0 0 Z " fill="#F5BC1D" transform="translate(75.5625,29.9375)"/>
<path d="M0 0 C0.86625 0.103125 1.7325 0.20625 2.625 0.3125 C3.615 1.6325 4.605 2.9525 5.625 4.3125 C1.995 4.6425 -1.635 4.9725 -5.375 5.3125 C-2.91021127 0.38292254 -2.91021127 0.38292254 0 0 Z " fill="#F5BC1C" transform="translate(51.375,29.6875)"/>
</svg>
